<?xml version="1.0" standalone="no"?>
<!DOCTYPE svg PUBLIC "-//W3C//DTD SVG 20010904//EN"
 "http://www.w3.org/TR/2001/REC-SVG-20010904/DTD/svg10.dtd">
<svg version="1.0" xmlns="http://www.w3.org/2000/svg"
 width="642.000000pt" height="642.000000pt" viewBox="0 0 642.000000 642.000000"
 preserveAspectRatio="xMidYMid meet">
<metadata>
Created by potrace 1.11, written by Peter Selinger 2001-2013
</metadata>
<g transform="translate(0.000000,642.000000) scale(0.100000,-0.100000)"
fill="#000000" stroke="none">
<path d="M3291 5957 c-244 -367 -1300 -1947 -1990 -2977 -367 -547 -466 -701
-465 -725 1 -48 14 -229 19 -277 3 -23 7 -74 9 -113 13 -191 18 -256 21 -272
2 -10 4 -30 4 -45 l1 -28 1315 0 1315 0 1 -27 c0 -16 0 -313 1 -660 l0 -633
637 0 637 0 0 651 c-1 358 1 655 5 660 3 5 167 10 364 11 l360 3 0 480 0 480
-363 3 c-279 2 -362 5 -363 15 0 6 -2 858 -2 1892 l-2 1880 -645 2 -645 2
-214 -322z m231 -2384 c-1 -571 -1 -1048 -1 -1060 l-1 -23 -705 0 c-388 0
-705 2 -705 5 0 5 71 116 80 125 3 3 57 84 120 180 63 96 118 177 121 180 3 3
8 10 10 15 2 6 232 352 510 770 278 418 518 782 534 808 15 26 30 46 32 43 3
-3 5 -472 5 -1043z"/>
</g>
</svg>
